<svg id="svg" version="1.1" xmlns="http://www.w3.org/2000/svg" xmlns:xlink="http://www.w3.org/1999/xlink" width="400" height="400" viewBox="0, 0, 400,400"><g id="svgg"><path id="path0" d="M191.732 38.194 C 183.405 40.022,180.625 42.291,177.950 49.443 C 177.348 51.052,176.866 51.667,175.820 52.164 C 174.903 52.599,174.169 53.415,173.535 54.702 L 172.600 56.600 172.600 197.800 L 172.600 339.000 173.541 341.081 C 174.059 342.225,174.928 343.454,175.473 343.811 C 176.065 344.199,177.298 346.182,178.532 348.730 C 180.494 352.780,180.703 353.051,182.600 354.000 C 183.700 354.550,184.690 355.090,184.800 355.200 C 184.910 355.310,185.702 355.725,186.560 356.122 C 187.418 356.519,188.457 357.273,188.870 357.798 C 192.444 362.342,206.563 362.398,211.555 357.888 C 212.353 357.167,213.635 356.320,214.403 356.006 C 215.171 355.691,216.038 355.201,216.329 354.917 C 216.619 354.633,217.100 354.400,217.398 354.400 C 218.533 354.400,220.466 352.206,221.752 349.459 C 222.488 347.886,223.898 345.770,224.886 344.755 C 228.548 340.991,228.200 356.461,228.200 197.600 C 228.200 47.840,228.306 56.038,226.336 53.153 C 225.943 52.577,225.084 51.883,224.428 51.611 C 223.601 51.269,223.090 50.670,222.763 49.659 C 221.458 45.625,217.985 41.296,214.980 39.956 C 209.191 37.374,198.988 36.601,191.732 38.194 M206.765 39.814 C 211.724 40.618,212.574 41.073,216.732 45.148 C 219.411 47.773,220.430 49.079,220.987 50.600 C 221.390 51.700,222.052 53.078,222.459 53.662 C 222.867 54.246,223.200 54.847,223.200 54.999 C 223.200 55.150,223.560 55.731,224.000 56.291 C 224.440 56.850,224.800 57.899,224.800 58.621 C 224.800 59.343,225.025 60.008,225.300 60.100 C 226.203 60.401,226.014 336.843,225.110 337.747 C 224.731 338.126,223.087 341.173,221.457 344.518 C 218.060 351.487,218.132 351.405,213.600 353.442 C 211.730 354.283,210.110 355.083,210.000 355.219 C 206.821 359.161,193.415 359.103,190.397 355.133 C 190.285 354.987,188.441 354.025,186.298 352.996 L 182.402 351.125 180.757 347.663 C 179.852 345.758,178.321 342.576,177.356 340.592 C 175.906 337.612,175.600 336.585,175.600 334.692 C 175.600 333.431,175.420 332.400,175.200 332.400 C 174.934 332.400,174.800 287.200,174.800 197.600 C 174.800 119.850,174.950 62.800,175.153 62.800 C 175.348 62.800,175.633 61.585,175.786 60.100 C 175.940 58.615,176.362 56.950,176.723 56.400 C 177.918 54.582,178.823 52.769,179.682 50.472 C 182.891 41.897,193.606 37.680,206.765 39.814 M87.400 132.431 C 83.449 133.298,82.824 133.617,81.387 135.499 C 79.906 137.438,77.241 139.555,75.233 140.386 C 73.631 141.050,72.568 143.388,71.601 148.377 C 71.156 150.674,70.478 152.996,70.096 153.537 C 67.551 157.135,67.800 147.751,67.800 240.067 L 67.800 323.135 69.031 324.881 C 70.530 327.008,71.002 328.316,72.011 333.147 C 72.777 336.816,73.942 339.422,74.928 339.674 C 76.299 340.024,81.607 343.520,82.256 344.501 C 85.376 349.217,107.464 349.940,107.587 345.331 C 107.613 344.365,109.710 342.401,111.129 342.013 C 112.973 341.509,115.367 339.331,116.157 337.441 C 116.488 336.648,116.935 336.000,117.149 336.000 C 117.853 336.000,120.106 333.450,120.852 331.809 C 121.863 329.583,122.025 151.704,121.018 148.852 C 120.339 146.926,118.506 144.491,117.493 144.168 C 117.104 144.043,116.532 143.334,116.222 142.591 C 115.499 140.861,113.506 139.045,111.123 137.945 C 109.910 137.385,109.086 136.690,108.791 135.979 C 107.497 132.853,104.583 131.998,95.400 132.046 C 91.880 132.065,88.280 132.238,87.400 132.431 M295.859 132.605 C 293.707 133.196,292.298 134.314,291.609 135.979 C 291.311 136.698,290.501 137.373,289.267 137.931 C 287.121 138.901,284.808 141.184,284.030 143.100 C 283.740 143.815,283.351 144.400,283.165 144.400 C 282.601 144.400,280.516 146.620,279.735 148.052 C 278.577 150.176,278.588 329.828,279.747 332.000 C 280.507 333.425,282.581 335.600,283.179 335.600 C 283.360 335.600,283.824 336.275,284.210 337.100 C 285.164 339.139,287.682 341.556,289.162 341.852 C 290.515 342.123,291.626 343.105,292.947 345.200 C 296.002 350.044,313.420 349.567,318.343 344.504 C 319.365 343.454,321.496 341.916,323.080 341.086 C 326.874 339.098,327.350 338.400,328.647 332.910 C 329.447 329.522,330.030 327.929,330.799 327.031 C 333.407 323.983,333.200 331.470,333.200 240.088 C 333.200 150.071,333.350 155.973,331.003 153.441 C 330.252 152.631,329.696 151.269,329.125 148.845 C 327.710 142.832,327.613 142.524,326.811 141.505 C 326.379 140.956,325.071 140.039,323.905 139.469 C 321.642 138.362,319.200 136.242,319.200 135.385 C 319.200 132.712,302.647 130.740,295.859 132.605 M105.213 136.367 C 106.168 137.240,107.861 138.440,108.975 139.033 C 111.578 140.420,113.071 141.806,114.086 143.781 C 114.533 144.651,115.732 146.241,116.750 147.314 C 119.095 149.789,119.034 149.663,119.558 153.077 C 120.198 157.245,120.180 321.944,119.538 326.945 C 119.078 330.535,119.072 330.549,116.938 332.752 C 115.762 333.966,114.800 335.025,114.800 335.104 C 114.800 336.278,111.840 339.396,109.607 340.573 C 108.173 341.329,106.101 342.589,105.001 343.374 C 103.902 344.158,102.687 344.800,102.301 344.800 C 101.916 344.800,101.600 344.949,101.600 345.131 C 101.600 346.217,90.048 346.466,89.283 345.397 C 88.830 344.762,85.481 342.533,84.540 342.239 C 81.888 341.413,75.600 336.251,75.600 334.900 C 75.600 334.625,75.411 334.400,75.180 334.400 C 74.571 334.400,73.623 331.922,72.657 327.800 C 71.814 324.207,71.812 324.034,71.689 241.200 L 71.565 158.200 72.432 153.800 C 74.208 144.786,75.861 142.532,84.600 137.204 C 86.140 136.265,87.490 135.372,87.600 135.219 C 89.309 132.848,102.289 133.694,105.213 136.367 M311.900 134.603 C 312.395 134.763,312.800 135.019,312.800 135.173 C 312.800 135.327,313.565 135.874,314.500 136.388 C 324.018 141.628,326.088 144.285,328.372 154.200 C 329.651 159.755,329.675 320.195,328.397 325.525 C 327.959 327.354,327.600 329.124,327.600 329.457 C 327.600 333.501,323.255 338.493,316.770 341.899 C 313.246 343.749,311.514 344.818,311.117 345.387 C 310.365 346.464,298.800 346.224,298.800 345.131 C 298.800 344.949,298.481 344.800,298.091 344.800 C 297.702 344.800,296.160 343.908,294.665 342.819 C 293.170 341.729,291.554 340.718,291.074 340.572 C 289.427 340.073,287.588 338.349,286.581 336.362 C 286.027 335.268,284.850 333.720,283.966 332.921 C 280.163 329.486,280.403 335.710,280.403 240.400 C 280.402 144.921,280.172 150.910,283.985 147.179 C 284.784 146.398,285.694 145.138,286.008 144.379 C 286.613 142.920,289.676 139.600,290.417 139.600 C 291.005 139.600,293.905 137.583,295.616 135.985 C 297.728 134.012,307.495 133.183,311.900 134.603 " stroke="none" fill="#c4cccc" fill-rule="evenodd"></path><path id="path1" d="M0.000 200.000 L 0.000 400.000 200.000 400.000 L 400.000 400.000 400.000 200.000 L 400.000 0.000 200.000 0.000 L 0.000 0.000 0.000 200.000 M205.167 31.990 C 206.991 32.514,208.325 33.837,208.798 35.593 L 209.187 37.037 213.825 37.501 C 220.823 38.200,221.214 38.477,222.807 43.853 C 223.208 45.207,223.595 45.642,224.940 46.253 C 226.855 47.124,228.182 48.928,229.014 51.790 C 230.011 55.219,229.696 344.859,228.693 346.693 C 227.880 348.182,226.161 349.200,224.463 349.200 C 223.175 349.200,222.800 349.758,222.800 351.672 C 222.800 354.570,221.057 356.393,218.274 356.406 C 216.581 356.414,216.176 356.742,215.861 358.358 C 215.133 362.098,213.257 362.600,200.000 362.600 C 187.509 362.600,185.506 362.019,184.550 358.117 C 184.224 356.784,183.750 356.414,182.360 356.406 C 179.451 356.389,177.611 354.415,177.594 351.292 C 177.585 349.735,177.198 349.311,175.496 348.992 C 173.497 348.617,172.139 347.487,171.516 345.682 C 170.812 343.641,170.510 56.084,171.209 53.000 C 171.768 50.534,173.816 47.611,175.577 46.767 C 176.819 46.172,177.976 44.111,177.994 42.460 C 178.027 39.509,180.328 38.181,186.553 37.520 L 191.216 37.025 191.604 35.586 C 192.532 32.141,199.369 30.328,205.167 31.990 M108.500 131.209 C 109.325 131.445,110.000 131.809,110.000 132.019 C 110.000 132.228,110.264 132.400,110.586 132.400 C 111.568 132.400,113.928 134.759,114.204 136.017 C 114.347 136.668,114.719 137.200,115.032 137.200 C 115.344 137.200,115.930 137.515,116.333 137.900 C 116.736 138.285,117.771 138.960,118.633 139.400 C 120.784 140.498,122.304 143.664,122.815 148.108 C 123.334 152.615,123.314 326.984,122.795 331.914 C 122.538 334.353,122.148 336.000,121.659 336.714 C 121.250 337.311,120.617 338.291,120.254 338.892 C 119.890 339.492,119.009 340.284,118.296 340.651 C 117.583 341.019,116.770 341.645,116.489 342.044 C 116.207 342.442,115.355 342.885,114.594 343.027 C 113.602 343.214,112.974 343.672,112.370 344.648 C 111.907 345.397,111.185 346.194,110.764 346.419 C 110.344 346.644,110.000 347.071,110.000 347.368 C 110.000 349.400,99.861 350.471,88.337 349.656 C 80.352 349.092,78.854 348.362,78.188 344.714 C 77.905 343.165,77.745 343.059,75.000 342.605 C 71.705 342.061,71.019 340.889,70.551 335.000 C 70.293 331.744,69.442 330.000,68.110 330.000 C 67.808 330.000,66.911 329.369,66.118 328.599 L 64.675 327.197 64.359 321.899 C 63.974 315.455,63.959 165.444,64.342 158.383 C 64.648 152.733,64.516 153.013,68.701 149.134 C 70.213 147.732,70.296 147.528,70.556 144.534 C 71.044 138.926,72.042 137.600,75.773 137.600 C 77.262 137.600,78.000 136.807,78.000 135.206 C 78.000 133.771,79.101 132.138,80.444 131.582 C 83.180 130.448,104.829 130.161,108.500 131.209 M318.968 131.234 C 321.218 131.800,321.801 132.461,322.466 135.200 L 323.000 137.400 325.028 137.648 C 328.695 138.095,329.294 138.876,329.836 143.917 C 330.078 146.160,330.233 146.500,331.256 147.029 C 331.888 147.356,332.837 148.309,333.367 149.148 C 333.896 149.986,334.614 150.957,334.962 151.305 C 336.316 152.659,336.384 156.942,336.379 240.000 C 336.374 321.774,336.289 327.368,335.039 328.618 C 334.686 328.971,333.877 330.016,333.242 330.939 C 332.606 331.863,331.636 332.860,331.085 333.155 C 330.226 333.614,330.043 334.068,329.802 336.345 C 329.309 340.995,327.867 342.800,324.646 342.800 C 323.054 342.800,322.400 343.224,322.400 344.256 C 322.400 348.106,320.534 349.099,312.255 349.656 C 299.659 350.502,290.943 349.459,290.469 347.048 C 290.397 346.681,289.812 345.805,289.169 345.101 C 288.526 344.398,288.000 343.682,288.000 343.511 C 288.000 343.340,287.667 343.200,287.260 343.200 C 285.765 343.200,283.993 342.313,283.778 341.456 C 283.659 340.981,283.025 340.285,282.369 339.908 C 281.713 339.532,280.867 338.679,280.488 338.014 C 280.110 337.349,279.618 336.804,279.396 336.803 C 277.218 336.789,277.164 334.196,277.298 236.200 C 277.422 145.385,277.450 143.600,278.775 143.600 C 278.961 143.600,279.221 143.170,279.353 142.645 C 279.622 141.573,282.126 139.200,282.987 139.200 C 283.294 139.200,283.660 138.840,283.800 138.401 C 283.939 137.961,284.481 137.495,285.003 137.363 C 285.633 137.205,286.038 136.739,286.205 135.979 C 286.474 134.752,288.846 132.400,289.814 132.400 C 290.136 132.400,290.400 132.239,290.400 132.043 C 290.400 130.551,313.642 129.892,318.968 131.234 " stroke="none" fill="#fcfcfc" fill-rule="evenodd"></path><path id="path2" d="M192.777 42.170 C 189.974 42.785,189.644 42.998,188.964 44.625 C 188.343 46.111,186.346 47.801,184.738 48.203 C 182.786 48.690,182.115 49.917,181.129 54.800 L 180.200 59.400 180.200 197.400 C 180.200 357.147,179.825 344.315,184.587 347.591 C 185.517 348.231,186.567 349.195,186.919 349.732 C 190.185 354.716,211.652 354.395,213.961 349.327 C 214.183 348.838,214.958 348.132,215.683 347.758 C 217.973 346.574,218.799 344.982,219.862 339.704 C 220.732 335.379,221.246 75.386,220.407 63.600 C 219.624 52.597,218.507 48.918,215.694 48.076 C 213.923 47.545,212.001 46.191,211.998 45.471 C 211.985 42.292,200.896 40.388,192.777 42.170 M93.447 138.241 C 91.932 138.542,89.592 139.220,88.247 139.748 C 86.901 140.275,85.141 140.823,84.336 140.965 C 82.809 141.234,80.000 143.833,80.000 144.977 C 80.000 145.294,79.104 146.308,78.010 147.231 C 76.915 148.154,75.901 149.289,75.756 149.754 C 75.611 150.220,75.291 150.728,75.046 150.885 C 74.360 151.325,74.413 328.071,75.100 328.300 C 75.375 328.392,75.600 328.935,75.600 329.507 C 75.600 330.263,76.253 331.159,77.980 332.774 C 79.289 333.998,80.476 335.487,80.619 336.082 C 80.977 337.577,83.043 339.025,85.239 339.321 C 86.250 339.457,87.870 339.833,88.839 340.156 C 93.539 341.727,97.949 341.412,106.400 338.904 C 110.236 337.766,111.043 337.224,111.414 335.535 C 111.707 334.202,114.759 327.508,115.214 327.200 C 115.376 327.090,115.980 326.155,116.555 325.123 L 117.600 323.246 117.600 240.083 L 117.600 156.919 116.559 154.960 C 115.987 153.882,115.380 152.910,115.210 152.800 C 114.737 152.492,112.116 146.715,111.628 144.903 C 111.052 142.765,111.048 142.762,104.600 140.593 C 101.520 139.557,98.514 138.460,97.920 138.155 C 97.326 137.850,96.696 137.621,96.520 137.647 C 96.344 137.672,94.961 137.940,93.447 138.241 M302.607 138.074 C 302.171 138.332,299.115 139.463,295.814 140.587 C 289.318 142.799,289.585 142.592,288.286 146.400 C 287.037 150.061,285.536 153.793,285.232 153.993 C 283.305 155.264,283.400 150.799,283.400 240.031 C 283.400 329.915,283.281 324.522,285.304 326.026 C 285.472 326.151,285.982 327.313,286.437 328.610 C 286.893 329.906,287.546 331.508,287.888 332.170 C 288.230 332.831,288.800 334.260,289.155 335.343 L 289.800 337.314 293.441 338.591 C 301.626 341.460,305.131 341.653,313.824 339.712 C 317.802 338.823,318.927 338.109,320.158 335.693 C 320.695 334.638,321.675 333.478,322.370 333.072 C 323.057 332.672,323.925 331.862,324.300 331.272 C 324.675 330.682,325.166 330.072,325.391 329.915 C 325.668 329.721,325.800 300.683,325.800 240.105 L 325.800 150.581 324.900 149.615 C 324.405 149.084,324.000 148.518,324.000 148.357 C 324.000 148.197,323.360 147.670,322.578 147.187 C 321.710 146.650,320.918 145.711,320.543 144.775 C 319.766 142.832,317.826 141.344,315.347 140.788 C 314.283 140.550,312.637 140.011,311.688 139.592 C 310.739 139.172,308.846 138.630,307.481 138.387 C 306.117 138.145,304.640 137.870,304.200 137.776 C 303.760 137.682,303.043 137.816,302.607 138.074 " stroke="none" fill="#049ce4" fill-rule="evenodd"></path><path id="path3" d="M193.293 39.836 C 187.652 40.783,181.512 45.580,179.682 50.472 C 178.823 52.769,177.918 54.582,176.723 56.400 C 176.362 56.950,175.940 58.615,175.786 60.100 C 175.633 61.585,175.348 62.800,175.153 62.800 C 174.950 62.800,174.800 119.850,174.800 197.600 C 174.800 287.200,174.934 332.400,175.200 332.400 C 175.420 332.400,175.600 333.431,175.600 334.692 C 175.600 336.585,175.906 337.612,177.356 340.592 C 178.321 342.576,179.852 345.758,180.757 347.663 L 182.402 351.125 186.298 352.996 C 188.441 354.025,190.285 354.987,190.397 355.133 C 193.415 359.103,206.821 359.161,210.000 355.219 C 210.110 355.083,211.730 354.283,213.600 353.442 C 218.132 351.405,218.060 351.487,221.457 344.518 C 223.087 341.173,224.731 338.126,225.110 337.747 C 226.014 336.843,226.203 60.401,225.300 60.100 C 225.025 60.008,224.800 59.343,224.800 58.621 C 224.800 57.899,224.440 56.850,224.000 56.291 C 223.560 55.731,223.200 55.150,223.200 54.999 C 223.200 54.847,222.867 54.246,222.459 53.662 C 222.052 53.078,221.390 51.700,220.987 50.600 C 220.165 48.354,214.293 42.210,211.870 41.060 C 208.365 39.397,199.423 38.808,193.293 39.836 M207.594 42.184 C 210.136 42.729,211.992 44.114,211.998 45.471 C 212.001 46.191,213.923 47.545,215.694 48.076 C 218.507 48.918,219.624 52.597,220.407 63.600 C 221.246 75.386,220.732 335.379,219.862 339.704 C 218.799 344.982,217.973 346.574,215.683 347.758 C 214.958 348.132,214.183 348.838,213.961 349.327 C 211.652 354.395,190.185 354.716,186.919 349.732 C 186.567 349.195,185.517 348.231,184.587 347.591 C 179.825 344.315,180.200 357.147,180.200 197.400 L 180.200 59.400 181.129 54.800 C 182.115 49.917,182.786 48.690,184.738 48.203 C 186.346 47.801,188.343 46.111,188.964 44.625 C 189.269 43.895,189.751 43.154,190.036 42.978 C 192.148 41.672,202.932 41.185,207.594 42.184 M93.200 134.018 C 89.644 134.223,88.076 134.559,87.600 135.219 C 87.490 135.372,86.140 136.265,84.600 137.204 C 75.861 142.532,74.208 144.786,72.432 153.800 L 71.565 158.200 71.689 241.200 C 71.812 324.034,71.814 324.207,72.657 327.800 C 73.623 331.922,74.571 334.400,75.180 334.400 C 75.411 334.400,75.600 334.625,75.600 334.900 C 75.600 336.251,81.888 341.413,84.540 342.239 C 85.481 342.533,88.830 344.762,89.283 345.397 C 90.048 346.466,101.600 346.217,101.600 345.131 C 101.600 344.949,101.916 344.800,102.301 344.800 C 102.687 344.800,103.902 344.158,105.001 343.374 C 106.101 342.589,108.173 341.329,109.607 340.573 C 111.840 339.396,114.800 336.278,114.800 335.104 C 114.800 335.025,115.762 333.966,116.938 332.752 C 119.072 330.549,119.078 330.535,119.538 326.945 C 120.180 321.944,120.198 157.245,119.558 153.077 C 119.034 149.663,119.095 149.789,116.750 147.314 C 115.732 146.241,114.533 144.651,114.086 143.781 C 113.071 141.806,111.578 140.420,108.975 139.033 C 107.861 138.440,106.168 137.240,105.213 136.367 C 103.076 134.413,99.272 133.669,93.200 134.018 M300.123 134.248 C 297.479 134.626,296.783 134.895,295.616 135.985 C 293.905 137.583,291.005 139.600,290.417 139.600 C 289.676 139.600,286.613 142.920,286.008 144.379 C 285.694 145.138,284.784 146.398,283.985 147.179 C 280.172 150.910,280.402 144.921,280.403 240.400 C 280.403 335.710,280.163 329.486,283.966 332.921 C 284.850 333.720,286.027 335.268,286.581 336.362 C 287.588 338.349,289.427 340.073,291.074 340.572 C 291.554 340.718,293.170 341.729,294.665 342.819 C 296.160 343.908,297.702 344.800,298.091 344.800 C 298.481 344.800,298.800 344.949,298.800 345.131 C 298.800 346.224,310.365 346.464,311.117 345.387 C 311.514 344.818,313.246 343.749,316.770 341.899 C 323.255 338.493,327.600 333.501,327.600 329.457 C 327.600 329.124,327.959 327.354,328.397 325.525 C 329.675 320.195,329.651 159.755,328.372 154.200 C 326.088 144.285,324.018 141.628,314.500 136.388 C 313.565 135.874,312.800 135.327,312.800 135.173 C 312.800 134.216,304.549 133.614,300.123 134.248 M97.920 138.155 C 98.514 138.460,101.520 139.557,104.600 140.593 C 111.048 142.762,111.052 142.765,111.628 144.903 C 112.116 146.715,114.737 152.492,115.210 152.800 C 115.380 152.910,115.987 153.882,116.559 154.960 L 117.600 156.919 117.600 240.083 L 117.600 323.246 116.555 325.123 C 115.980 326.155,115.376 327.090,115.214 327.200 C 114.759 327.508,111.707 334.202,111.414 335.535 C 111.043 337.224,110.236 337.766,106.400 338.904 C 97.949 341.412,93.539 341.727,88.839 340.156 C 87.870 339.833,86.250 339.457,85.239 339.321 C 83.043 339.025,80.977 337.577,80.619 336.082 C 80.476 335.487,79.289 333.998,77.980 332.774 C 76.253 331.159,75.600 330.263,75.600 329.507 C 75.600 328.935,75.375 328.392,75.100 328.300 C 74.413 328.071,74.360 151.325,75.046 150.885 C 75.291 150.728,75.611 150.220,75.756 149.754 C 75.901 149.289,76.915 148.154,78.010 147.231 C 79.104 146.308,80.000 145.294,80.000 144.977 C 80.000 143.833,82.809 141.234,84.336 140.965 C 85.141 140.823,86.901 140.275,88.247 139.748 C 90.190 138.985,94.030 138.010,96.520 137.647 C 96.696 137.621,97.326 137.850,97.920 138.155 M307.481 138.387 C 308.846 138.630,310.739 139.172,311.688 139.592 C 312.637 140.011,314.283 140.550,315.347 140.788 C 317.826 141.344,319.766 142.832,320.543 144.775 C 320.918 145.711,321.710 146.650,322.578 147.187 C 323.360 147.670,324.000 148.197,324.000 148.357 C 324.000 148.518,324.405 149.084,324.900 149.615 L 325.800 150.581 325.800 240.105 C 325.800 300.683,325.668 329.721,325.391 329.915 C 325.166 330.072,324.675 330.682,324.300 331.272 C 323.925 331.862,323.057 332.672,322.370 333.072 C 321.675 333.478,320.695 334.638,320.158 335.693 C 318.927 338.109,317.802 338.823,313.824 339.712 C 305.131 341.653,301.626 341.460,293.441 338.591 L 289.800 337.314 289.155 335.343 C 288.800 334.260,288.230 332.831,287.888 332.170 C 287.546 331.508,286.893 329.906,286.437 328.610 C 285.982 327.313,285.472 326.151,285.304 326.026 C 283.281 324.522,283.400 329.915,283.400 240.031 C 283.400 150.799,283.305 155.264,285.232 153.993 C 285.536 153.793,287.037 150.061,288.286 146.400 C 289.585 142.592,289.318 142.799,295.814 140.587 C 299.115 139.463,302.171 138.332,302.607 138.074 C 303.043 137.816,303.760 137.682,304.200 137.776 C 304.640 137.870,306.117 138.145,307.481 138.387 " stroke="none" fill="#84a4bc" fill-rule="evenodd"></path><path id="path4" d="M195.048 32.014 C 193.413 32.503,192.055 33.912,191.604 35.586 L 191.216 37.025 186.553 37.520 C 180.328 38.181,178.027 39.509,177.994 42.460 C 177.976 44.111,176.819 46.172,175.577 46.767 C 173.816 47.611,171.768 50.534,171.209 53.000 C 170.510 56.084,170.812 343.641,171.516 345.682 C 172.139 347.487,173.497 348.617,175.496 348.992 C 177.198 349.311,177.585 349.735,177.594 351.292 C 177.611 354.415,179.451 356.389,182.360 356.406 C 183.750 356.414,184.224 356.784,184.550 358.117 C 185.506 362.019,187.509 362.600,200.000 362.600 C 213.257 362.600,215.133 362.098,215.861 358.358 C 216.176 356.742,216.581 356.414,218.274 356.406 C 221.057 356.393,222.800 354.570,222.800 351.672 C 222.800 349.758,223.175 349.200,224.463 349.200 C 226.161 349.200,227.880 348.182,228.693 346.693 C 229.696 344.859,230.011 55.219,229.014 51.790 C 228.182 48.928,226.855 47.124,224.940 46.253 C 223.595 45.642,223.208 45.207,222.807 43.853 C 221.214 38.477,220.823 38.200,213.825 37.501 L 209.187 37.037 208.798 35.593 C 207.868 32.138,200.787 30.295,195.048 32.014 M208.580 38.219 C 216.958 39.997,220.583 42.921,222.763 49.659 C 223.090 50.670,223.601 51.269,224.428 51.611 C 225.084 51.883,225.943 52.577,226.336 53.153 C 228.306 56.038,228.200 47.840,228.200 197.600 C 228.200 356.461,228.548 340.991,224.886 344.755 C 223.898 345.770,222.488 347.886,221.752 349.459 C 220.466 352.206,218.533 354.400,217.398 354.400 C 217.100 354.400,216.619 354.633,216.329 354.917 C 216.038 355.201,215.171 355.691,214.403 356.006 C 213.635 356.320,212.353 357.167,211.555 357.888 C 206.563 362.398,192.444 362.342,188.870 357.798 C 188.457 357.273,187.418 356.519,186.560 356.122 C 185.702 355.725,184.910 355.310,184.800 355.200 C 184.690 355.090,183.700 354.550,182.600 354.000 C 180.703 353.051,180.494 352.780,178.532 348.730 C 177.298 346.182,176.065 344.199,175.473 343.811 C 174.928 343.454,174.059 342.225,173.541 341.081 L 172.600 339.000 172.600 197.800 L 172.600 56.600 173.535 54.702 C 174.169 53.415,174.903 52.599,175.820 52.164 C 176.866 51.667,177.348 51.052,177.950 49.443 C 179.784 44.539,182.648 41.070,185.932 39.772 C 192.422 37.207,201.033 36.617,208.580 38.219 M85.562 130.757 C 79.988 131.184,78.000 132.354,78.000 135.206 C 78.000 136.807,77.262 137.600,75.773 137.600 C 72.042 137.600,71.044 138.926,70.556 144.534 C 70.296 147.528,70.213 147.732,68.701 149.134 C 64.516 153.013,64.648 152.733,64.342 158.383 C 63.959 165.444,63.974 315.455,64.359 321.899 L 64.675 327.197 66.118 328.599 C 66.911 329.369,67.808 330.000,68.110 330.000 C 69.442 330.000,70.293 331.744,70.551 335.000 C 71.019 340.889,71.705 342.061,75.000 342.605 C 77.745 343.059,77.905 343.165,78.188 344.714 C 78.854 348.362,80.352 349.092,88.337 349.656 C 99.861 350.471,110.000 349.400,110.000 347.368 C 110.000 347.071,110.344 346.644,110.764 346.419 C 111.185 346.194,111.907 345.397,112.370 344.648 C 112.974 343.672,113.602 343.214,114.594 343.027 C 115.355 342.885,116.207 342.442,116.489 342.044 C 116.770 341.645,117.583 341.019,118.296 340.651 C 119.009 340.284,119.890 339.492,120.254 338.892 C 120.617 338.291,121.250 337.311,121.659 336.714 C 122.148 336.000,122.538 334.353,122.795 331.914 C 123.314 326.984,123.334 152.615,122.815 148.108 C 122.304 143.664,120.784 140.498,118.633 139.400 C 117.771 138.960,116.736 138.285,116.333 137.900 C 115.930 137.515,115.344 137.200,115.032 137.200 C 114.719 137.200,114.347 136.668,114.204 136.017 C 113.928 134.759,111.568 132.400,110.586 132.400 C 110.264 132.400,110.000 132.228,110.000 132.019 C 110.000 130.859,94.601 130.064,85.562 130.757 M295.200 130.781 C 291.640 131.120,290.400 131.446,290.400 132.043 C 290.400 132.239,290.136 132.400,289.814 132.400 C 288.846 132.400,286.474 134.752,286.205 135.979 C 286.038 136.739,285.633 137.205,285.003 137.363 C 284.481 137.495,283.939 137.961,283.800 138.401 C 283.660 138.840,283.294 139.200,282.987 139.200 C 282.126 139.200,279.622 141.573,279.353 142.645 C 279.221 143.170,278.961 143.600,278.775 143.600 C 277.450 143.600,277.422 145.385,277.298 236.200 C 277.164 334.196,277.218 336.789,279.396 336.803 C 279.618 336.804,280.110 337.349,280.488 338.014 C 280.867 338.679,281.713 339.532,282.369 339.908 C 283.025 340.285,283.659 340.981,283.778 341.456 C 283.993 342.313,285.765 343.200,287.260 343.200 C 287.667 343.200,288.000 343.340,288.000 343.511 C 288.000 343.682,288.526 344.398,289.169 345.101 C 289.812 345.805,290.397 346.681,290.469 347.048 C 290.943 349.459,299.659 350.502,312.255 349.656 C 320.534 349.099,322.400 348.106,322.400 344.256 C 322.400 343.224,323.054 342.800,324.646 342.800 C 327.867 342.800,329.309 340.995,329.802 336.345 C 330.043 334.068,330.226 333.614,331.085 333.155 C 331.636 332.860,332.606 331.863,333.242 330.939 C 333.877 330.016,334.686 328.971,335.039 328.618 C 336.289 327.368,336.374 321.774,336.379 240.000 C 336.384 156.942,336.316 152.659,334.962 151.305 C 334.614 150.957,333.896 149.986,333.367 149.148 C 332.837 148.309,331.888 147.356,331.256 147.029 C 330.233 146.500,330.078 146.160,329.836 143.917 C 329.294 138.876,328.695 138.095,325.028 137.648 L 323.000 137.400 322.466 135.200 C 321.801 132.461,321.218 131.800,318.968 131.234 C 316.731 130.670,299.753 130.347,295.200 130.781 M104.124 132.559 C 106.608 133.144,108.057 134.205,108.791 135.979 C 109.086 136.690,109.910 137.385,111.123 137.945 C 113.506 139.045,115.499 140.861,116.222 142.591 C 116.532 143.334,117.104 144.043,117.493 144.168 C 118.506 144.491,120.339 146.926,121.018 148.852 C 122.025 151.704,121.863 329.583,120.852 331.809 C 120.106 333.450,117.853 336.000,117.149 336.000 C 116.935 336.000,116.488 336.648,116.157 337.441 C 115.367 339.331,112.973 341.509,111.129 342.013 C 109.710 342.401,107.613 344.365,107.587 345.331 C 107.464 349.940,85.376 349.217,82.256 344.501 C 81.607 343.520,76.299 340.024,74.928 339.674 C 73.942 339.422,72.777 336.816,72.011 333.147 C 71.002 328.316,70.530 327.008,69.031 324.881 L 67.800 323.135 67.800 240.067 C 67.800 147.751,67.551 157.135,70.096 153.537 C 70.478 152.996,71.156 150.674,71.601 148.377 C 72.568 143.388,73.631 141.050,75.233 140.386 C 77.241 139.555,79.906 137.438,81.387 135.499 C 82.824 133.617,83.449 133.298,87.400 132.431 C 90.028 131.855,101.504 131.943,104.124 132.559 M313.640 132.608 C 316.679 133.248,319.200 134.507,319.200 135.385 C 319.200 136.242,321.642 138.362,323.905 139.469 C 325.071 140.039,326.379 140.956,326.811 141.505 C 327.613 142.524,327.710 142.832,329.125 148.845 C 329.696 151.269,330.252 152.631,331.003 153.441 C 333.350 155.973,333.200 150.071,333.200 240.088 C 333.200 331.470,333.407 323.983,330.799 327.031 C 330.030 327.929,329.447 329.522,328.647 332.910 C 327.350 338.400,326.874 339.098,323.080 341.086 C 321.496 341.916,319.365 343.454,318.343 344.504 C 313.420 349.567,296.002 350.044,292.947 345.200 C 291.626 343.105,290.515 342.123,289.162 341.852 C 287.682 341.556,285.164 339.139,284.210 337.100 C 283.824 336.275,283.360 335.600,283.179 335.600 C 282.581 335.600,280.507 333.425,279.747 332.000 C 278.588 329.828,278.577 150.176,279.735 148.052 C 280.516 146.620,282.601 144.400,283.165 144.400 C 283.351 144.400,283.740 143.815,284.030 143.100 C 284.808 141.184,287.121 138.901,289.267 137.931 C 290.501 137.373,291.311 136.698,291.609 135.979 C 292.298 134.314,293.707 133.196,295.859 132.605 C 298.677 131.831,309.953 131.833,313.640 132.608 " stroke="none" fill="#f4f4f4" fill-rule="evenodd"></path></g></svg>